<svg xmlns="http://www.w3.org/2000/svg" version="1.1" xmlns:xlink="http://www.w3.org/1999/xlink" xmlns:svgjs="http://svgjs.com/svgjs" width="1440" height="560" preserveAspectRatio="none" viewBox="0 0 1440 560"><g mask="url(&quot;#SvgjsMask1019&quot;)" fill="none"><path d="M1076.83 160.49 a170.66 170.66 0 1 0 341.32 0 a170.66 170.66 0 1 0 -341.32 0z" fill="rgba(204, 247, 162, 0.51)" class="triangle-float1"></path><path d="M1240.49 79.28 a122.08 122.08 0 1 0 244.16 0 a122.08 122.08 0 1 0 -244.16 0z" fill="rgba(204, 247, 162, 0.51)" class="triangle-float1"></path><path d="M823.63,268.804C858.174,267.744,883.598,240.203,900.473,210.043C916.861,180.752,923.671,146.589,908.86,116.47C892.179,82.548,861.427,54.352,823.63,53.775C785.027,53.185,751.847,79.682,733.766,113.794C716.812,145.779,720.003,183.706,738.159,215.024C756.254,246.236,787.569,269.911,823.63,268.804" fill="rgba(204, 247, 162, 0.51)" class="triangle-float3"></path><path d="M990.3063024984258 354.74411008434265L1106.3923473632026 358.7979240982742 1110.446161377134 242.7118792334974 994.3601165123574 238.6580652195658z" fill="rgba(204, 247, 162, 0.51)" class="triangle-float2"></path><path d="M594.180295421748 443.2934707684714L594.180295421748 592.8258376218905 743.7126622751671 443.29347076847137z" fill="rgba(204, 247, 162, 0.51)" class="triangle-float3"></path><path d="M1270.39 57.8 a128.05 128.05 0 1 0 256.1 0 a128.05 128.05 0 1 0 -256.1 0z" fill="rgba(204, 247, 162, 0.51)" class="triangle-float3"></path><path d="M1086.065,522.536C1131.188,523.865,1177.689,510.465,1202.084,472.481C1228.341,431.598,1232.184,377.151,1205.533,336.523C1180.788,298.801,1131.082,292.657,1086.065,295.62C1046.924,298.197,1011.6,317.228,991.053,350.642C969.392,385.868,961.301,429.789,981.306,465.981C1001.882,503.206,1043.55,521.284,1086.065,522.536" fill="rgba(204, 247, 162, 0.51)" class="triangle-float3"></path><path d="M914.1969258545091 503.33894261070276L884.845503475541 407.33476586622106 788.8413267310593 436.68618824518916 818.1927491100274 532.6903649896708z" fill="rgba(204, 247, 162, 0.51)" class="triangle-float2"></path><path d="M661.413,195.331C697.437,194.964,729.763,174.992,748.249,144.07C767.266,112.259,770.32,73.757,753.979,40.492C735.39,2.651,703.57,-32.187,661.413,-32.7C618.622,-33.22,584.115,-0.026,564.862,38.192C547.521,72.614,551.276,113.034,571.453,145.874C590.653,177.123,624.739,195.705,661.413,195.331" fill="rgba(204, 247, 162, 0.51)" class="triangle-float3"></path><path d="M-126.19 58.98 a144.28 144.28 0 1 0 288.56 0 a144.28 144.28 0 1 0 -288.56 0z" fill="rgba(204, 247, 162, 0.51)" class="triangle-float1"></path><path d="M259.1 255.37 a174.36 174.36 0 1 0 348.72 0 a174.36 174.36 0 1 0 -348.72 0z" fill="rgba(204, 247, 162, 0.51)" class="triangle-float3"></path><path d="M338.21 544.21 a114.81 114.81 0 1 0 229.62 0 a114.81 114.81 0 1 0 -229.62 0z" fill="rgba(204, 247, 162, 0.51)" class="triangle-float2"></path><path d="M453.38974487583164 375.82934653387747L424.09564458659196 471.646031171074 519.9123292237886 500.9401314603137 549.2064295130282 405.12344682311715z" fill="rgba(204, 247, 162, 0.51)" class="triangle-float3"></path><path d="M601.29 397.69 a151.85 151.85 0 1 0 303.7 0 a151.85 151.85 0 1 0 -303.7 0z" fill="rgba(204, 247, 162, 0.51)" class="triangle-float3"></path><path d="M426.615,408.674C455.036,406.986,478.599,389.294,493.16,364.828C508.121,339.69,515.287,308.984,501.202,283.345C486.671,256.895,456.793,243.476,426.615,243.695C396.835,243.911,369.742,259.21,353.876,284.413C336.805,311.529,328.622,345.986,344.809,373.639C360.871,401.078,394.877,410.559,426.615,408.674" fill="rgba(204, 247, 162, 0.51)" class="triangle-float3"></path><path d="M917.14 415.97 a93.41 93.41 0 1 0 186.82 0 a93.41 93.41 0 1 0 -186.82 0z" fill="rgba(204, 247, 162, 0.51)" class="triangle-float3"></path><path d="M257.3171023124273 345.2710014050092L153.4113416312183 361.62656395179386 210.02039631936887 434.0828498062525z" fill="rgba(204, 247, 162, 0.51)" class="triangle-float1"></path><path d="M651.89,713.154C700.1,714.729,745.743,687.371,768.277,644.722C789.544,604.471,779.046,556.65,755.007,517.99C732.457,481.725,694.541,459.677,651.89,457.543C604.732,455.184,552.817,465.805,529.207,506.695C505.596,547.587,523.85,596.93,547.971,637.523C571.428,676.998,605.996,711.654,651.89,713.154" fill="rgba(204, 247, 162, 0.51)" class="triangle-float1"></path><path d="M624.96 181.52 a112.43 112.43 0 1 0 224.86 0 a112.43 112.43 0 1 0 -224.86 0z" fill="rgba(204, 247, 162, 0.51)" class="triangle-float2"></path><path d="M1235.77615216556 147.1444563636763L1337.5695541386178 159.6431145277511 1305.420840398201 0.7036824861269224z" fill="rgba(204, 247, 162, 0.51)" class="triangle-float1"></path></g><defs><mask id="SvgjsMask1019"><rect width="1440" height="560" fill="#ffffff"></rect></mask><style>
            @keyframes float1 {
                0%{transform: translate(0, 0)}
                50%{transform: translate(-10px, 0)}
                100%{transform: translate(0, 0)}
            }

            .triangle-float1 {
                animation: float1 5s infinite;
            }

            @keyframes float2 {
                0%{transform: translate(0, 0)}
                50%{transform: translate(-5px, -5px)}
                100%{transform: translate(0, 0)}
            }

            .triangle-float2 {
                animation: float2 4s infinite;
            }

            @keyframes float3 {
                0%{transform: translate(0, 0)}
                50%{transform: translate(0, -10px)}
                100%{transform: translate(0, 0)}
            }

            .triangle-float3 {
                animation: float3 6s infinite;
            }
        </style></defs></svg>