<svg id="SvgjsSvg1001" width="288" height="288" xmlns="http://www.w3.org/2000/svg" version="1.1" xmlns:xlink="http://www.w3.org/1999/xlink" xmlns:svgjs="http://svgjs.com/svgjs"><defs id="SvgjsDefs1002"></defs><g id="SvgjsG1008" transform="matrix(1,0,0,1,0,0)"><svg xmlns="http://www.w3.org/2000/svg" enable-background="new 0 0 64 64" viewBox="0 0 64 64" width="288" height="288"><g transform="translate(332 375)" fill="#52cc99" class="color000 svgShape"><polyline fill="#52cc99" points="-292.6 -355.7 -300 -363.1 -307.4 -355.7 -309.2 -357.5 -300 -366.8 -290.8 -357.5 -292.6 -355.7" class="color134563 svgShape"></polyline><polygon fill="#52cc99" points="-301.4 -364.9 -298.6 -364.9 -298.6 -335.9 -301.4 -335.9" class="color134563 svgShape"></polygon><path fill="#52cc99" d="M-286.2-319.2h-27.7c-2.3,0-4.2-1.9-4.2-4.2v-24.9c0-2.3,1.9-4.2,4.2-4.2h9.7v2.8h-9.7     c-0.8,0-1.4,0.6-1.4,1.4v24.9c0,0.8,0.6,1.4,1.4,1.4h27.7c0.8,0,1.4-0.6,1.4-1.4v-24.9c0-0.8-0.6-1.4-1.4-1.4h-9.7v-2.8h9.7     c2.3,0,4.2,1.9,4.2,4.2v24.9C-282-321.1-283.9-319.2-286.2-319.2" class="color134563 svgShape"></path></g></svg></g></svg>